# xmcd
#
# Track frame offsets: 
#        150
#        19880
#        39355
#        49601
#        70297
#        82390
#        105864
#        121372
#        137452
#        150290
#        176904
#        198139
#
# Disc length: 3077 seconds
#
# Revision: 0
# Processed by: cddbd v1.5.2PL0 Copyright (c) Steve Scherf et al.
# Submitted via: ExactAudioCopy v1.0b1
#
DISCID=950c030c
DTITLE=Heart  - Little Queen First U.S Pressing Vinyl  FLAC
DYEAR=1900
DGENRE=
TTITLE0=Barracuda
TTITLE1=Love Alive
TTITLE2=Sylvan Song
TTITLE3=Dream of the Archer
TTITLE4=Kick It Out
TTITLE5=Little Queen
TTITLE6=Treat Me Well
TTITLE7=Say Hello
TTITLE8=Cry to Me
TTITLE9=Go On Cry
TTITLE10=Love Alive
TTITLE11=Little Queen - From The California Jam
EXTD=
EXTT0=
EXTT1=
EXTT2=
EXTT3=
EXTT4=
EXTT5=
EXTT6=
EXTT7=
EXTT8=
EXTT9=
EXTT10=
EXTT11=
PLAYORDER=
